<svg width="43" height="43" viewBox="0 0 43 43" fill="none" xmlns="http://www.w3.org/2000/svg">
<circle cx="21.5" cy="21.5" r="18.75" stroke="#070C02" stroke-width="1.5"/>
<path d="M21.4258 11.1611C21.5782 11.0089 21.7847 10.9235 22 10.9235C22.2153 10.9235 22.4218 11.0089 22.5742 11.1611L31.9883 20.5753C32.0633 20.6528 32.153 20.7147 32.2521 20.7572C32.3513 20.7997 32.4579 20.8221 32.5658 20.823C32.6737 20.8239 32.7807 20.8033 32.8805 20.7624C32.9803 20.7215 33.071 20.6611 33.1473 20.5848C33.2235 20.5084 33.2838 20.4177 33.3246 20.3178C33.3654 20.218 33.3859 20.111 33.3849 20.0031C33.384 19.8952 33.3615 19.7886 33.3189 19.6895C33.2762 19.5904 33.2143 19.5007 33.1367 19.4258L23.7236 10.0117C23.4972 9.78532 23.2285 9.60577 22.9328 9.48328C22.6371 9.36078 22.3201 9.29773 22 9.29773C21.6799 9.29773 21.3629 9.36078 21.0672 9.48328C20.7715 9.60577 20.5028 9.78532 20.2764 10.0117L10.8622 19.4258C10.7847 19.5008 10.7228 19.5905 10.6803 19.6897C10.6378 19.7888 10.6154 19.8954 10.6145 20.0033C10.6136 20.1112 10.6342 20.2182 10.6751 20.318C10.716 20.4178 10.7764 20.5085 10.8527 20.5848C10.929 20.661 11.0198 20.7213 11.1197 20.7621C11.2195 20.8029 11.3265 20.8234 11.4344 20.8225C11.5423 20.8215 11.6489 20.799 11.748 20.7564C11.8471 20.7137 11.9367 20.6518 12.0117 20.5742L21.4258 11.1611Z" fill="#070C02"/>
<path d="M22 12.8847L30.8389 21.7236C30.8714 21.7561 30.9039 21.7864 30.9375 21.8167V28.5312C30.9375 29.6525 30.0275 30.5625 28.9063 30.5625H25.25C25.0345 30.5625 24.8279 30.4769 24.6755 30.3245C24.5231 30.1722 24.4375 29.9655 24.4375 29.75V24.875C24.4375 24.6595 24.3519 24.4528 24.1995 24.3005C24.0472 24.1481 23.8405 24.0625 23.625 24.0625H20.375C20.1595 24.0625 19.9528 24.1481 19.8005 24.3005C19.6481 24.4528 19.5625 24.6595 19.5625 24.875V29.75C19.5625 29.9655 19.4769 30.1722 19.3245 30.3245C19.1722 30.4769 18.9655 30.5625 18.75 30.5625H15.0938C14.555 30.5625 14.0384 30.3485 13.6574 29.9676C13.2765 29.5866 13.0625 29.07 13.0625 28.5312V21.8167C13.0962 21.7866 13.1291 21.7555 13.1611 21.7236L22 12.8847Z" fill="#070C02"/>
</svg>
