<svg width="43" height="43" viewBox="0 0 43 43" fill="none" xmlns="http://www.w3.org/2000/svg">
<circle cx="21.5" cy="21.5" r="18.75" stroke="black" stroke-width="1.5"/>
<path fill-rule="evenodd" clip-rule="evenodd" d="M17.125 14.5C17.125 13.2071 17.6386 11.9671 18.5529 11.0529C19.4671 10.1386 20.7071 9.625 22 9.625C23.293 9.625 24.5329 10.1386 25.4472 11.0529C26.3614 11.9671 26.875 13.2071 26.875 14.5C26.875 15.7929 26.3614 17.0329 25.4472 17.9471C24.5329 18.8614 23.293 19.375 22 19.375C20.7071 19.375 19.4671 18.8614 18.5529 17.9471C17.6386 17.0329 17.125 15.7929 17.125 14.5ZM13.0636 29.7804C13.1001 27.4344 14.0577 25.1969 15.7296 23.5508C17.4016 21.9047 19.6538 20.9821 22 20.9821C24.3463 20.9821 26.5985 21.9047 28.2704 23.5508C29.9423 25.1969 30.8999 27.4344 30.9364 29.7804C30.9393 29.9383 30.896 30.0937 30.8119 30.2274C30.7278 30.3611 30.6066 30.4674 30.463 30.5333C27.808 31.7507 24.9209 32.379 22 32.375C18.9819 32.375 16.1143 31.7163 13.537 30.5333C13.3935 30.4674 13.2722 30.3611 13.1881 30.2274C13.1041 30.0937 13.0608 29.9383 13.0636 29.7804Z" fill="black"/>
</svg>
