<svg width="25" height="24" viewBox="0 0 25 24" fill="none" xmlns="http://www.w3.org/2000/svg">
<path d="M13.5809 10.712L8.79489 4.002C8.73939 3.92404 8.66604 3.86049 8.58098 3.81666C8.49591 3.77282 8.40159 3.74996 8.3059 3.75H5.7799C5.6698 3.75014 5.56186 3.78057 5.4679 3.83797C5.37394 3.89536 5.29759 3.9775 5.2472 4.07539C5.19681 4.17328 5.17432 4.28315 5.1822 4.39296C5.19009 4.50278 5.22804 4.60831 5.29189 4.698L11.4189 13.288M13.5809 10.712L19.7079 19.302C19.7718 19.3917 19.8097 19.4972 19.8176 19.607C19.8255 19.7169 19.803 19.8267 19.7526 19.9246C19.7022 20.0225 19.6258 20.1046 19.5319 20.162C19.4379 20.2194 19.33 20.2499 19.2199 20.25H16.6939C16.5982 20.25 16.5039 20.2272 16.4188 20.1833C16.3337 20.1395 16.2604 20.076 16.2049 19.998L11.4189 13.288M13.5809 10.712L19.4229 3.75M11.4189 13.288L5.5769 20.25" stroke="#F5F5F5" stroke-width="1.5" stroke-linecap="round" stroke-linejoin="round"/>
</svg>
